<svg width="1200" height="200" viewBox="0 0 1200 200" fill="none" xmlns="http://www.w3.org/2000/svg">
<g clip-path="url(#clip0_210_46)">
<rect width="1200" height="200" rx="10" fill="black"/>
<ellipse cx="1112" cy="105" rx="459" ry="429" fill="#1F1F1F" stroke="#424242" stroke-width="4"/>
<path d="M801.243 84.94H773.043V49.9H791.643C796.383 49.9 801.243 54.64 801.243 59.5V84.94ZM791.583 76V59.38C791.583 59.14 791.283 58.84 791.043 58.84H782.763V76H791.583ZM838.522 84.94H828.802V58.84H821.002V77.26C821.002 81.04 817.222 84.94 813.322 84.94H806.062V76H810.742C810.982 76 811.282 75.7 811.282 75.46V58.84H806.962V49.9H838.522V84.94ZM857.49 84.94H847.77V58.84H843.81V49.9H857.49V84.94ZM893.399 84.94H882.659L873.119 67.36L873.299 84.94H863.879L863.999 67.48C863.999 65.08 864.599 63.64 866.519 62.26L869.099 60.4L862.679 49.9H873.419L883.919 68.44L883.979 49.9H893.279L893.039 66.76C893.039 69.16 892.439 70.6 890.519 71.98L887.279 74.38L893.399 84.94ZM943.684 84.94H915.484V49.9H934.084C938.824 49.9 943.684 54.64 943.684 59.5V84.94ZM934.024 76V59.38C934.024 59.14 933.724 58.84 933.484 58.84H925.204V76H934.024ZM963.383 66.82H953.663V58.84H949.103V49.9H963.383V66.82ZM994.365 84.94H984.645V58.84H968.205V49.9H994.365V84.94ZM1014.07 66.82H1004.35V58.84H999.787V49.9H1014.07V66.82ZM1037.37 58.78H1028.97L1032.15 61.9C1032.99 62.74 1033.11 63.4 1033.11 64.3V85H1023.33V62.08L1017.99 58.24V49.84H1037.37V58.78ZM1071.24 84.94H1061.52V59.38C1061.52 59.14 1061.22 58.84 1060.98 58.84H1052.7V84.94H1042.98V49.9H1061.64C1066.38 49.9 1071.24 54.64 1071.24 59.5V84.94ZM1107.98 85H1092.74V76.06H1098.32V59.38C1098.32 59.14 1098.02 58.84 1097.78 58.84H1091.42L1087.04 85H1076.66L1080.32 64C1080.68 61.84 1081.76 60.64 1084.58 58.84H1077.32V49.9H1098.38C1103.12 49.9 1107.98 54.64 1107.98 59.5V85ZM983.873 134.94H974.153V108.84H955.973V99.9H983.873V134.94ZM965.573 134.94H955.973V115.44H965.573V134.94ZM1021.16 134.94H1011.44V108.84H1003.64V127.26C1003.64 131.04 999.858 134.94 995.958 134.94H988.698V126H993.378C993.618 126 993.918 125.7 993.918 125.46V108.84H989.598V99.9H1021.16V134.94ZM1040.73 116.82H1031.01V108.84H1026.45V99.9H1040.73V116.82ZM1074.65 134.94H1046.45V126H1061.81V108.84H1046.45V99.9H1071.53V126H1074.65V134.94ZM1107.97 134.94H1098.25V108.84H1080.07V99.9H1107.97V134.94ZM1089.67 134.94H1080.07V115.44H1089.67V134.94Z" fill="white"/>
<path d="M783.198 93.24V114.72C783.198 116.22 782.898 117.24 782.418 118.44L781.098 121.74H773.658V93.24H783.198ZM782.718 134.94H773.598V126H782.718V134.94ZM803.467 134.94H793.747V108.84H789.787V99.9H803.467V134.94ZM822.875 116.82H813.155V108.84H808.595V99.9H822.875V116.82ZM851.277 116.58C851.277 118.44 850.677 119.52 849.297 120.54L845.457 123.48L841.677 119.94L842.637 116.82V99.9H851.277V116.58ZM864.177 125.34C864.177 130.08 859.437 134.94 854.577 134.94H829.617V99.9H838.497V126H854.757C854.997 126 855.297 125.7 855.297 125.46V99.9H864.177V125.34ZM897.355 125.34C897.355 130.08 892.615 134.94 887.755 134.94H870.895V126H887.155C887.395 126 887.695 125.7 887.695 125.46V109.38C887.695 109.14 887.395 108.84 887.155 108.84H870.895V99.9H887.755C892.495 99.9 897.355 104.64 897.355 109.5V125.34ZM933.18 125.34C933.18 130.08 928.44 134.94 923.58 134.94H901.98V126H909.66L908.34 123.96C907.74 123 907.14 121.56 907.14 120.36V99.9H916.86V126H922.98C923.22 126 923.52 125.7 923.52 125.46V99.9H933.18V125.34Z" fill="#E82900"/>
<path fill-rule="evenodd" clip-rule="evenodd" d="M1109.19 148.955C1109.46 149.066 1109.46 149.375 1109.19 149.486C1110.21 149.819 1111.32 149.557 1112 150.017C1111.34 150.429 1110.87 150.937 1108.99 150.818C1108.63 150.897 1108.54 151.095 1108.6 151.349C1105.18 151.595 1103.05 151 1099.79 151.349C1099.43 150.937 1097.87 151.389 1096.78 150.992C1095 151.222 1094.43 151.103 1092.37 151.167C1090.89 151.991 1088.47 151.753 1086.55 151.88C1086.03 151.666 1084.96 151.722 1085.35 151.523C1084.42 151.46 1084.47 151.841 1083.74 151.88C1081.04 151.333 1077.63 152.483 1075.52 151.167C1074.09 151.444 1074.03 151.619 1072.71 151.167C1072.48 151.246 1072.71 151.365 1072.31 151.523H1068.71C1068.21 151.42 1069.2 151.151 1068.32 151.167C1068.57 150.897 1069 151.262 1069.52 151.167C1067.37 150.81 1064.76 150.659 1063.11 151.167C1062.75 150.858 1060.46 150.207 1060.1 150.992C1059.8 150.897 1059.69 150.707 1059.1 150.723C1059.01 150.913 1059.38 150.889 1059.71 150.897C1058.47 150.865 1056.32 151.072 1055.89 150.453C1055.16 150.533 1055.77 150.715 1055.69 150.984C1054.96 150.62 1053.85 151.278 1052.88 150.984C1052.38 151.198 1053.03 151.373 1052.88 151.698C1052.13 151.642 1052.27 151.634 1051.29 151.611C1050.61 152.055 1051.65 152.047 1051.29 152.499C1050.43 152.602 1047.69 152.514 1046.47 152.055C1045.59 152.15 1043.62 152.189 1043.27 151.785C1044.25 152.023 1046.04 151.904 1046.27 151.611C1046.69 152.039 1047.06 151.849 1048.67 151.872C1047.42 151.722 1046.49 151.42 1045.67 151.072C1045.97 150.739 1046.13 150.747 1045.67 150.453C1045.02 150.525 1042.62 150.818 1041.85 150.184C1041.15 150.231 1041.17 150.596 1040.04 150.453C1040.49 150.905 1042.75 150.556 1042.85 151.167C1041.51 151.08 1041.01 151.357 1040.04 151.436C1040.33 151.634 1041.44 151.468 1042.05 151.523C1041.83 151.904 1040.9 151.967 1040.24 152.142C1039.72 152.071 1039.11 152.055 1038.84 151.872C1033.24 152.467 1027.18 151.397 1022.21 151.698C1019.34 151.23 1015.87 151.468 1012.39 151.523C1011.51 151.016 1009.11 151.412 1007.38 151.08C1006.73 151 1006.96 151.309 1006.57 151.349C1005.94 151.452 1006.09 151.206 1005.77 151.167C1003.2 151.587 1000.52 150.612 998.154 151.349C996.399 150.826 993.444 151.238 990.937 151.167C989.701 150.905 986.979 150.612 985.725 151.167C983.343 150.604 979.511 151.206 976.914 150.81C976.198 150.818 975.768 150.953 975.302 151.08C968.569 150.707 962.587 151.127 956.068 150.81C955.424 151.111 954.761 150.953 953.865 151.167C953.722 150.604 949.908 151.46 949.46 150.81C947.132 151.357 942.887 151.08 940.04 151.167C940.076 151.064 940.398 151.095 940.649 151.08C940.058 150.786 939.628 151.309 939.646 151.349C939.127 151.08 939.055 151.428 937.443 151.349C937.246 151.254 937.049 151.167 936.834 151.08C932.303 151.333 928.399 151.262 922.812 151.523C922.489 151.555 922.991 151.682 922.615 151.698C919.982 151.294 914.986 151.761 911.995 151.872C911.296 151.722 912.389 151.642 912.801 151.698C912.156 151.397 910.705 151.841 910.204 151.611C909.398 152.221 905.333 151.452 903.381 152.055C903.184 151.904 902.718 151.872 902.575 151.698C900.981 152.078 898.993 151.864 896.969 151.96C896.253 151.967 897.399 152.253 896.772 152.229C894.014 152.071 891.292 152.316 887.549 152.229C887.549 152.316 887.8 152.3 887.943 152.316C886.403 152.007 883.699 152.958 882.732 152.229C881.245 152.316 881.174 152.602 879.723 152.586C879.777 152.467 880.225 152.514 880.529 152.499C880.457 152.292 879.652 152.411 879.526 152.237C879.956 152.57 876.768 152.847 876.911 152.499C873.831 152.982 870.518 152.514 867.491 152.943C866.614 152.538 865.217 153.157 863.086 153.117C866.256 153.006 859.952 152.832 859.683 152.855C859.074 152.887 858.376 153.188 858.071 153.212C854.579 153.442 852.985 153.054 850.854 153.212C850.783 153.363 851.015 153.379 851.248 153.387C849.69 153.276 846.18 153.918 844.837 152.943C844.55 153.204 844.264 153.458 843.834 153.656C842.58 153.529 839.876 153.244 840.825 153.83H840.019C839.482 153.601 840.413 153.704 840.413 153.474C836.169 154.06 830.778 153.529 827.591 154.187C825.603 153.632 820.176 154.504 817.562 154.187C815.431 154.473 812.028 154.544 809.539 154.274C808.769 154.29 809.467 154.203 809.342 154.005C807.873 153.997 808.733 154.481 807.945 154.718C800.638 154.806 797.916 155.131 791.916 155.162C791.504 155.186 791.379 155.337 791.111 155.424C789.588 155.131 787.206 155.868 786.293 155.25C786.526 155.234 786.4 155.162 786.293 155.162C786.777 155.02 787.403 154.948 787.905 154.806C787.278 154.576 787.171 154.132 785.899 154.187C786.06 153.878 786.812 154.187 787.296 153.926C787.26 153.854 787.099 153.838 787.099 153.751C786.884 153.601 785.022 153.949 785.487 154.108C784.735 153.981 782.765 154.1 781.476 154.021C781.673 153.878 782.335 153.926 782.675 153.846C782.425 153.498 781.332 153.926 780.473 153.846C779.452 153.553 778.556 153.212 777.876 152.784C777.249 152.736 777.16 152.943 776.479 152.871C775.44 152.11 773.596 151.238 774.079 150.39C774.814 149.058 779.524 149.359 782.299 148.701C808.607 147.488 835.757 146.989 861.277 145.95C861.904 145.911 861.814 146.188 862.28 146.22C871.037 145.617 880.225 145.673 889.537 145.332C904.921 144.761 920.86 144.872 936.028 144.27C936.44 144.254 936.834 144.357 937.228 144.357C944.839 144.341 953.686 144 962.283 144C970.879 144 979.027 144.198 986.728 144.087C989.522 144.048 992.387 144.111 994.948 144.444C999.318 144.238 1006.23 144.396 1011.39 144.618C1011.6 144.595 1011.53 144.444 1011.78 144.444C1022.37 144.84 1033.24 145.157 1044.25 145.689C1046.96 145.815 1049.66 145.752 1052.67 145.958C1057.7 146.307 1064.86 146.466 1070.31 146.846C1072.46 146.997 1074.59 146.838 1076.72 146.933C1077.63 146.973 1078.39 147.219 1079.32 147.29C1081.59 147.457 1084.17 147.346 1086.53 147.472C1090.46 147.671 1094.5 147.94 1098.35 148.36C1099.84 148.344 1100.14 148.329 1101.56 148.36C1101.27 148.701 1102.45 148.376 1102.17 148.717C1104.48 148.638 1106.11 148.804 1109.19 148.987V148.955ZM1103.58 149.137C1103.3 148.995 1103.08 148.828 1102.58 148.78C1102.58 148.995 1103.28 149.351 1103.58 149.137ZM966.491 150.2C967.297 150.311 967.261 149.597 966.885 149.486C966.921 149.803 966.043 149.97 966.491 150.2ZM1026.61 150.2C1027.45 150.215 1027.72 150.041 1028.42 150.2C1028.46 149.978 1028.46 149.771 1028.03 149.756C1027.88 150.049 1026.65 149.851 1026.63 150.2H1026.61ZM1036.23 150.025C1036.73 150.033 1037 150.152 1037.03 150.382C1036.53 150.374 1036.41 150.215 1036.03 150.382C1036.03 150.873 1037.59 150.485 1038.04 150.382C1037.36 150.334 1036.78 149.581 1036.23 150.025ZM1019.98 150.913C1020.56 150.897 1021.54 151.159 1021.99 150.913C1021.08 150.913 1020.59 150.604 1019.98 150.913ZM1050.05 150.913C1049.27 150.699 1047.46 150.945 1046.65 150.739C1047.21 151.159 1049.18 150.905 1050.05 150.913ZM884.899 151.627C885.543 151.706 885.526 151.492 885.902 151.452C885.937 151.23 885.794 151.087 885.508 151.008C885.633 151.365 885.257 151.484 884.899 151.627ZM1035.42 151.539C1036 151.555 1035.89 151.206 1036.42 151.452C1036.41 151.167 1035.98 151.064 1035.23 151.095C1035.06 151.349 1035.51 151.325 1035.42 151.539ZM1031.61 151.365C1031.21 151.325 1030.37 151.032 1030.01 151.278C1030.34 151.349 1031.23 151.611 1031.61 151.365ZM876.482 151.809H875.873C875.873 151.722 876.034 151.706 876.07 151.634C875.783 151.682 875.031 151.531 875.067 151.722C875.55 151.698 876.034 152.11 876.464 151.809H876.482ZM848.616 152.253C849.26 152.38 849.117 151.722 848.813 151.722C848.58 151.825 848.58 152.039 848.616 152.253ZM878.076 151.809C877.861 152.126 877.091 151.492 876.876 151.809C877.395 151.904 878.613 152.221 878.076 151.809ZM1049.03 151.983C1049.27 152.086 1049.75 152.086 1050.23 152.071V151.801C1049.71 151.809 1049.28 151.849 1049.03 151.975V151.983ZM861.832 152.158C862.405 152.388 863.175 152.158 863.229 151.888C862.638 151.92 862.011 151.944 861.832 152.158ZM836.778 152.689C837.369 152.958 838.139 152.721 839.178 152.863C839.088 152.451 838.032 152.657 837.369 152.689C837.387 152.53 838.193 152.039 837.369 152.071C837.423 152.388 836.76 152.396 836.76 152.689H836.778ZM852.018 152.514C852.681 152.697 854.006 152.546 854.024 152.158C853.773 152.158 853.737 152.047 853.415 152.071C853.702 152.546 852.341 152.3 852.018 152.514ZM859.039 152.34C859.826 152.237 860.435 152.61 860.65 152.253C859.809 152.213 859.504 151.952 859.039 152.34ZM850.227 152.602C851.105 152.602 852.072 152.483 851.033 152.34C851.248 152.34 851.194 152.229 850.836 152.253C851.015 152.538 850.174 152.372 850.227 152.61V152.602ZM856.442 152.245C856.03 152.3 855.134 152.134 855.045 152.332C855.403 152.499 856.173 152.38 856.442 152.245ZM845.625 152.689C846.914 152.641 848.723 152.816 849.439 152.514C847.541 152.57 846.807 152.3 845.625 152.689ZM817.365 152.689C817.902 152.689 818.547 152.736 818.565 152.514C818.027 152.514 817.383 152.467 817.365 152.689ZM841.219 152.776C841.971 153.054 844.908 152.744 843.816 152.507C843.655 152.911 841.649 152.499 841.219 152.776ZM810.559 153.577C810.828 153.315 810.739 153.141 810.165 153.046C810.165 153.283 810.058 153.569 810.559 153.577ZM817.58 153.664C817.669 153.331 817.15 153.26 816.774 153.133C816.344 153.347 817.222 153.529 817.58 153.664ZM818.977 153.751C819.639 153.624 819.926 153.339 820.373 153.133C819.424 153.101 818.69 153.513 818.977 153.751ZM789.32 154.639C790.179 154.552 790.43 154.734 790.931 154.814C790.77 154.56 791.218 154.584 791.128 154.37C790.179 154.496 790.627 153.997 789.732 154.1C789.821 154.377 789.445 154.449 789.338 154.631L789.32 154.639ZM793.922 154.639C794.209 154.354 792.722 154.417 792.722 154.552C792.955 154.655 793.439 154.655 793.922 154.639ZM1045.25 150.739C1045.36 151 1044.25 151.175 1044.86 151.357C1044.54 151.008 1045.72 151.325 1045.67 151.087C1045.13 151.151 1045.81 150.667 1045.27 150.731L1045.25 150.739Z" fill="#E82900"/>
</g>
<defs>
<clipPath id="clip0_210_46">
<rect width="1200" height="200" rx="10" fill="white"/>
</clipPath>
</defs>
</svg>
